# xmcd
# Copyright (C) 1995-1998 Ti Kan
#
# Track frame offsets:
#       150
#       12455
#       26925
#       41775
#       60225
#       76692
#       93032
#       106030
#       127795
#       146882
#       170220
#
# Disc length: 2641 seconds
#
# Revision: 0
# Processed by: cddbd v1.5.2PL0 Copyright (c) Steve Scherf et al.
# Submitted via: CD-Import v1.0
#
DISCID=860a4f0b
DTITLE=Band Of Skulls - Baby Darling Doll Face Honey
DYEAR=09
DGENRE=
TTITLE0=Light Of The Morning
TTITLE1=Death By Diamonds And Pearls
TTITLE2=I Know What I Am
TTITLE3=Fires
TTITLE4=Honest
TTITLE5=Patterns
TTITLE6=Bomb
TTITLE7=Impossible
TTITLE8=Blood
TTITLE9=Dull Cold Heart
TTITLE10=Cold Fame
EXTD=
EXTT0=
EXTT1=
EXTT2=
EXTT3=
EXTT4=
EXTT5=
EXTT6=
EXTT7=
EXTT8=
EXTT9=
EXTT10=
PLAYORDER=
